HIERARCHY
ROOT Hips
{
	OFFSET 0.000000 0.000000 0.000000
	CHANNELS 6 Xposition Yposition Zposition Zrotation Yrotation Xrotation 
	JOINT LHipJoint
	{
		OFFSET 0.000000 0.000000 0.000000
		CHANNELS 3 Zrotation Yrotation Xrotation
		JOINT LeftUpLeg
		{
			OFFSET 1.363060 -1.794630 0.839290
			CHANNELS 3 Zrotation Yrotation Xrotation
			JOINT LeftLeg
			{
				OFFSET 2.448110 -6.726130 0.000000
				CHANNELS 3 Zrotation Yrotation Xrotation
				JOINT LeftFoot
				{
					OFFSET 2.562200 -7.039590 0.000000
					CHANNELS 3 Zrotation Yrotation Xrotation
					JOINT LeftToeBase
					{
						OFFSET 0.157640 -0.433110 2.322550
						CHANNELS 3 Zrotation Yrotation Xrotation
						End Site
						{
							OFFSET 0.000000 0.000000 0.000000
						}
					}
				}
			}
		}
	}
	JOINT RHipJoint
	{
		OFFSET 0.000000 0.000000 0.000000
		CHANNELS 3 Zrotation Yrotation Xrotation
		JOINT RightUpLeg
		{
			OFFSET -1.305520 -1.794630 0.839290
			CHANNELS 3 Zrotation Yrotation Xrotation
			JOINT RightLeg
			{
				OFFSET -2.542530 -6.985550 0.000000
				CHANNELS 3 Zrotation Yrotation Xrotation
				JOINT RightFoot
				{
					OFFSET -2.568260 -7.056230 0.000000
					CHANNELS 3 Zrotation Yrotation Xrotation
					JOINT RightToeBase
					{
						OFFSET -0.164730 -0.452590 2.363150
						CHANNELS 3 Zrotation Yrotation Xrotation
						End Site
						{
							OFFSET 0.000000 0.000000 0.000000
						}
					}
				}
			}
		}
	}
}
MOTION
Frames: 33
Frame Time: 0.008333
-3.364122 16.817179 -2.063933 8.219361 72.299144 17.609419 -9.500699 -0.408937 3.278404 -0.987010 -8.482041 -31.255677 -1.607656 0.269058 19.300996 0.013599 -0.775494 1.962767 0.091000 0.000000 -34.484800 10.838494 -2.715812 -0.919959 1.801685 -2.130417 -3.642063 1.775754 -2.636769 33.954244 0.682518 8.549035 -8.363307 -0.157500 0.000000 -62.492400
-3.237722 16.782340 -2.069267 9.301825 71.592915 18.478380 -9.456464 -0.344847 3.011307 -2.173847 -7.303039 -31.638212 -1.656164 0.372040 21.134587 0.035040 -0.703617 1.361278 0.096000 0.000000 -34.914500 11.124542 -2.735331 -0.907456 0.731002 -2.525264 -5.096554 1.495729 -2.914076 37.157665 0.689407 8.663002 -7.400425 -0.060200 0.000000 -65.816799
-3.116224 16.743762 -2.074111 10.337756 70.888759 19.274896 -9.401869 -0.282941 2.723847 -3.343066 -6.145857 -32.034676 -1.703761 0.484111 23.075870 0.060491 -0.626164 0.587009 0.098600 0.000000 -35.257600 11.414190 -2.734470 -0.909563 -0.327394 -2.922234 -6.610969 1.184402 -3.189599 40.464280 0.679002 8.706268 -6.188934 0.083000 0.000001 -68.800400
-3.000028 16.701424 -2.078713 11.313607 70.190452 19.989141 -9.337396 -0.224192 2.422661 -4.467715 -5.054268 -32.417158 -1.748855 0.603071 25.085283 0.089769 -0.545339 -0.348351 0.097300 0.000000 -35.528600 11.703149 -2.708259 -0.928633 -1.355858 -3.305549 -8.167031 0.845107 -3.460022 43.845698 0.644275 8.648550 -4.747576 0.271199 -0.000000 -71.242600
-2.889384 16.655469 -2.083452 12.215454 69.498874 20.609935 -9.264607 -0.169427 2.112412 -5.528994 -4.055214 -32.758083 -1.790510 0.726325 27.120334 0.122574 -0.463617 -1.424167 0.090901 -0.000000 -35.752499 11.987044 -2.652332 -0.966204 -2.338511 -3.658743 -9.745566 0.483977 -3.722608 47.274338 0.579185 8.456791 -3.122072 0.493600 0.000000 -72.912801
-2.784428 16.606261 -2.088670 13.033177 68.812496 21.128402 -9.185540 -0.119122 1.796101 -6.517355 -3.160987 -33.032777 -1.828400 0.851050 29.138581 0.158785 -0.380662 -2.612618 0.078601 -0.000000 -35.955600 12.262087 -2.563978 -1.022939 -3.263305 -3.968624 -11.328881 0.109375 -3.975744 50.723349 0.479934 8.097140 -1.381988 0.727901 0.000000 -73.624300
-2.685013 16.554262 -2.094698 13.763759 68.127219 21.542966 -9.101711 -0.073004 1.475794 -7.432491 -2.373015 -33.223478 -1.862734 0.974629 31.101788 0.198898 -0.290120 -3.883022 0.060300 -0.000000 -36.158800 12.525892 -2.442120 -1.098836 -4.124558 -4.228549 -12.904990 -0.269423 -4.219326 54.169968 0.346055 7.539521 0.380342 0.940999 -0.000000 -73.206500
-2.590893 16.500211 -2.101908 14.401075 67.437722 21.847464 -9.015426 -0.030426 1.152169 -8.276754 -1.681503 -33.317108 -1.893615 1.095077 32.978199 0.243813 -0.181933 -5.203323 0.035700 -0.000000 -36.373500 12.775820 -2.288339 -1.193476 -4.916219 -4.434041 -14.461736 -0.643435 -4.454606 57.591285 0.180737 6.759505 2.052744 1.093400 0.000001 -71.520200
-2.501607 16.444972 -2.110679 14.938682 66.738175 22.034283 -8.929298 0.009416 0.825395 -9.053539 -1.070612 -33.305049 -1.920839 1.210878 34.742206 0.294958 -0.040778 -6.541710 0.003799 0.000000 -36.601000 13.009450 -2.106504 -1.305905 -5.632382 -4.584725 -15.987315 -1.006090 -4.683270 60.956664 -0.010675 5.738827 3.531175 1.149100 -0.000000 -68.744400
-2.416496 16.389475 -2.121198 15.379184 66.022829 22.107120 -8.844594 0.047963 0.496560 -9.770812 -0.525480 -33.186861 -1.944297 1.321078 36.375871 0.354167 0.152411 -7.869524 -0.037201 -0.000000 -36.832100 13.226309 -1.901590 -1.434990 -6.272837 -4.686917 -17.478615 -1.353502 -4.908119 64.245799 -0.219553 4.483196 4.697379 1.082900 0.000001 -64.799700
-2.334790 16.334838 -2.133637 15.721593 65.287848 22.065110 -8.763444 0.086131 0.166560 -10.432804 -0.028617 -32.963871 -1.963353 1.424973 37.866772 0.423077 0.415518 -9.160397 -0.090500 0.000001 -37.052300 13.425120 -1.679914 -1.577967 -6.832964 -4.744869 -18.928468 -1.684711 -5.129981 67.420763 -0.438629 3.010289 5.482518 0.892600 -0.000000 -60.131300
-2.255569 16.282174 -2.147997 15.968663 64.531770 21.914428 -8.687279 0.124882 -0.162741 -11.044006 0.434436 -32.643413 -1.977465 1.522236 39.209253 0.502893 0.762526 -10.393086 -0.159800 0.000000 -37.243500 13.605376 -1.447803 -1.731350 -7.309925 -4.764502 -20.334881 -1.999871 -5.348850 70.449221 -0.659831 1.367693 5.832571 0.599400 0.000000 -54.996400
-2.177909 16.232581 -2.164131 16.124972 63.755019 21.664224 -8.617334 0.164709 -0.488958 -11.606493 0.876002 -32.236638 -1.986269 1.612658 40.401940 0.593956 1.199860 -11.550940 -0.248400 -0.000001 -37.388400 13.766532 -1.211125 -1.890620 -7.699906 -4.751034 -21.696941 -2.299017 -5.562786 73.295302 -0.876110 -0.375874 5.736308 0.245500 -0.000000 -49.774599
-2.100808 16.187114 -2.181675 16.197122 62.961042 21.327619 -8.554797 0.206010 -0.808751 -12.121198 1.305383 -31.756194 -1.989708 1.695949 41.446808 0.695513 1.724296 -12.622339 -0.358300 0.000001 -37.471900 13.908019 -0.975938 -2.050711 -7.998975 -4.710530 -23.015598 -2.580695 -5.769028 75.928033 -1.079776 -2.131311 5.202666 -0.114600 -0.000000 -44.666200
-2.023419 16.146709 -2.200124 16.193803 62.155779 20.920316 -8.500610 0.248931 -1.118527 -12.587942 1.729444 -31.215731 -1.988303 1.771787 42.347733 0.805681 2.322679 -13.601207 -0.489200 0.000000 -37.483700 14.029206 -0.747278 -2.206816 -8.204365 -4.651223 -24.293392 -2.841601 -5.963968 78.318687 -1.263273 -3.801700 4.272115 -0.426400 -0.000000 -39.862400
-1.944880 16.112203 -2.218826 16.125814 61.346911 20.461014 -8.455290 0.293755 -1.413982 -13.007159 2.151052 -30.627684 -1.983216 1.839605 43.107957 0.921556 2.973098 -14.486037 -0.638301 -0.000000 -37.417000 14.129584 -0.529664 -2.355013 -8.314968 -4.585079 -25.533880 -3.076376 -6.144307 80.444345 -1.418085 -5.289803 2.989812 -0.645000 0.000001 -35.316400
-1.864585 16.084185 -2.237016 16.005720 60.543652 19.968475 -8.419179 0.340576 -1.691216 -13.379074 2.572220 -30.002866 -1.976107 1.898709 43.730768 1.039375 3.646936 -15.279418 -0.800800 0.000001 -37.271999 14.208549 -0.326464 -2.491629 -8.331536 -4.524259 -26.739692 -3.278445 -6.306491 82.283413 -1.537389 -6.514261 1.438257 -0.746100 0.000000 -31.120800
-1.782088 16.063128 -2.253904 15.846173 59.755301 19.460845 -8.392065 0.389792 -1.946598 -13.705565 2.992423 -29.347737 -1.969137 1.948244 44.216401 1.155071 4.313231 -15.987062 -0.970400 -0.000000 -37.052400 14.265708 -0.139932 -2.614575 -8.257692 -4.483563 -27.912135 -3.440658 -6.447859 83.820026 -1.615120 -7.413003 -0.298346 -0.728500 0.000000 -27.227900
-1.697100 16.049295 -2.268719 15.659819 58.990566 18.954565 -8.373211 0.441674 -2.177649 -13.989315 3.410622 -28.665953 -1.964646 1.987338 44.562978 1.264704 4.942538 -16.615919 -1.140100 -0.000000 -36.767200 14.300879 0.029224 -2.722668 -8.098866 -4.476334 -29.050739 -3.556664 -6.566139 85.041103 -1.648258 -7.953599 -2.115826 -0.614400 0.000000 -23.684900
-1.609540 16.042910 -2.280750 15.458675 58.257744 18.462000 -8.361922 0.496652 -2.381798 -14.233995 3.824855 -27.954926 -1.964764 2.014687 44.763799 1.364977 5.510894 -17.172137 -1.303500 0.000000 -36.427600 14.313888 0.180358 -2.814969 -7.862405 -4.515171 -30.151011 -3.621960 -6.659725 85.937460 -1.637325 -8.136319 -3.907660 -0.441600 0.000001 -20.549200
-1.519475 16.043990 -2.289485 15.252327 57.562131 17.991163 -8.357055 0.554983 -2.558296 -14.443542 4.234071 -27.209361 -1.971339 2.029285 44.810924 1.453534 6.001925 -17.660594 -1.454900 0.000000 -36.047700 14.304977 0.314526 -2.891913 -7.556596 -4.609952 -31.207056 -3.635167 -6.727567 86.505493 -1.587039 -7.994471 -5.569623 -0.253200 0.000000 -17.938600
-1.427168 16.052324 -2.294608 15.046737 56.905675 17.545837 -8.357174 0.616690 -2.708555 -14.621643 4.638743 -26.422158 -1.985778 2.030645 44.696362 1.529174 6.408269 -18.084258 -1.590400 0.000000 -35.645500 14.274782 0.434371 -2.955723 -7.190026 -4.767622 -32.211293 -3.598343 -6.769215 86.748054 -1.506211 -7.591633 -7.014671 -0.085600 -0.000000 -15.988400
-1.332884 16.067765 -2.295972 14.847067 56.288947 17.124483 -8.361607 0.681780 -2.833134 -14.771445 5.039280 -25.581831 -2.008534 2.017889 44.409310 1.591850 6.732146 -18.441393 -1.707000 -0.000001 -35.238200 14.223790 0.541151 -3.008049 -6.770145 -4.992933 -33.153242 -3.515917 -6.784826 86.672880 -1.406862 -7.014769 -8.191050 0.039900 0.000000 -14.747900
-1.236933 16.089990 -2.293621 14.653307 55.708140 16.722169 -8.369669 0.749946 -2.934869 -14.894428 5.438120 -24.678624 -2.039508 1.991050 43.941858 1.642465 6.983518 -18.727633 -1.803600 -0.000000 -34.843300 14.152663 0.637672 -3.052559 -6.302948 -5.287319 -34.023436 -3.393848 -6.775129 86.293987 -1.302811 -6.363921 -9.088016 0.119400 0.000000 -14.176900
-1.139586 16.118710 -2.287739 14.465699 55.158819 16.330794 -8.381558 0.821069 -3.015213 -14.991243 5.837222 -23.701685 -2.077675 1.950031 43.286864 1.682619 7.178483 -18.935113 -1.879900 0.000000 -34.479300 14.061894 0.724966 -3.092058 -5.792994 -5.650850 -34.810566 -3.238143 -6.741338 85.628935 -1.207964 -5.740770 -9.734243 0.161800 0.000000 -14.142300
-1.041010 16.153458 -2.278601 14.279320 54.634116 15.941199 -8.397463 0.894732 -3.076883 -15.060747 6.239480 -22.645182 -2.121499 1.895495 42.442712 1.714147 7.335348 -19.054993 -1.936400 0.000000 -34.161200 13.952153 0.804647 -3.130210 -5.242130 -6.080846 -35.506957 -3.054090 -6.685191 84.698739 -1.134542 -5.236387 -10.190503 0.182500 -0.000000 -14.446500
-0.941315 16.193759 -2.266529 14.087745 54.127855 15.543659 -8.417753 0.970491 -3.121635 -15.100256 6.646214 -21.507183 -2.168780 1.828273 41.412992 1.738855 7.472569 -19.077917 -1.973700 0.000000 -33.903401 13.824324 0.877271 -3.169826 -4.650279 -6.573825 -36.106583 -2.845593 -6.608711 83.524241 -1.091893 -4.921651 -10.536315 0.196800 0.000000 -14.849400
-0.840509 16.239065 -2.251814 13.882463 53.635454 15.129548 -8.442567 1.047727 -3.150875 -15.106537 7.057570 -20.291362 -2.216947 1.749414 40.207180 1.758218 7.605811 -18.995632 -1.992400 -0.000000 -33.715800 13.679661 0.942821 -3.213178 -4.016025 -7.126699 -36.606939 -2.615213 -6.514202 82.125026 -1.085877 -4.839853 -10.855578 0.217500 0.000000 -15.124300
-0.738492 16.288756 -2.234677 13.653587 53.154582 14.692428 -8.471853 1.125615 -3.165632 -15.075446 7.471404 -19.007164 -2.263278 1.660283 38.841888 1.773165 7.745740 -18.802949 -1.992500 0.000000 -33.604200 13.519585 1.001052 -3.261946 -3.336271 -7.736919 -37.009732 -2.364362 -6.403819 80.516972 -1.119066 -5.004736 -11.222095 0.254500 0.000000 -15.067000
-0.635119 16.342210 -2.215341 13.390614 52.685161 14.228054 -8.505485 1.203278 -3.166639 -15.002606 7.883805 -17.668472 -2.305143 1.562555 37.339378 1.784064 7.897664 -18.497751 -1.973200 0.000000 -33.570200 13.345562 1.051473 -3.317506 -2.607377 -8.403720 -37.318858 -2.093667 -6.279349 78.711481 -1.190979 -5.400521 -11.689585 0.315700 -0.000001 -14.519600
-0.530186 16.398744 -2.193937 13.083290 52.227953 13.737048 -8.544973 1.280146 -3.153052 -14.882547 8.289317 -16.299830 -2.340512 1.458470 35.729445 1.790541 8.059782 -18.083117 -1.933601 -0.000000 -33.610500 13.157422 1.093910 -3.379876 -1.821903 -9.126392 -37.544872 -1.803792 -6.140969 76.715297 -1.298811 -5.988377 -12.279957 0.407600 -0.000000 -13.415100
-0.423439 16.457772 -2.170547 12.725789 51.785550 13.223313 -8.592510 1.356269 -3.123362 -14.711441 8.682141 -14.925753 -2.367927 1.350414 34.044742 1.791660 8.224742 -17.565865 -1.872300 -0.000000 -33.721099 12.954544 1.127636 -3.448549 -0.974465 -9.906815 -37.697944 -1.496004 -5.988118 74.530995 -1.437401 -6.712183 -12.981584 0.533200 -0.000000 -11.783700
-0.314680 16.518616 -2.145058 12.315845 51.361815 12.695011 -8.651206 1.432334 -3.074708 -14.486525 9.056743 -13.575842 -2.386661 1.240882 32.322084 1.786102 8.380440 -16.957872 -1.788800 0.000000 -33.897200 12.735611 1.151409 -3.521611 -0.058535 -10.747395 -37.791830 -1.173082 -5.819287 72.159261 -1.599632 -7.509040 -13.746429 0.689500 0.000000 -9.799500
